<svg width="128" height="128" viewBox="0 0 128 128" fill="none" xmlns="http://www.w3.org/2000/svg">
<path d="M95.8463 63.9473C95.803 72.4314 92.3961 80.5518 86.3731 86.527C80.35 92.5023 72.2027 95.8444 63.7186 95.82C46.1304 95.7618 31.8458 81.2888 31.9123 63.6258C31.9927 46.1069 46.4823 31.7891 64.0317 31.8861C81.5811 31.9831 95.9128 46.4201 95.8463 63.9473ZM63.7823 85.1219L68.9069 85.1219C70.6142 85.1219 72.3242 85.1219 74.0315 85.1219C78.2747 85.0997 80.9132 82.4307 80.9104 78.1764C80.9104 72.2194 80.9104 66.2643 80.9104 60.3111C80.9104 56.4309 79.2059 54.2137 75.4006 53.3129C74.716 53.1522 74.486 52.8944 74.5054 52.2265C74.5359 51.0264 74.5497 49.8235 74.5054 48.6235C74.256 42.9473 69.985 38.6459 64.3228 38.3383C58.9737 38.0473 54.3175 41.8886 53.3946 47.3319C53.1174 48.8923 53.2782 50.4638 53.2615 52.0297C53.2615 52.7558 53.1313 53.1549 52.2804 53.3434C48.6192 54.1527 46.8759 56.3394 46.8565 60.1143C46.8232 66.1618 46.8232 72.2093 46.8565 78.2568C46.8814 82.5444 49.5089 85.1025 53.8186 85.1191C57.1361 85.133 60.4592 85.1219 63.7823 85.1219Z" fill="white"/>
<path d="M35.2572 121.364C32.1642 121.364 29.0739 121.364 25.9809 121.364C25.6881 121.35 25.3961 121.403 25.1268 121.519C24.8575 121.635 24.6179 121.81 24.426 122.031C22.6162 123.944 20.022 124.002 18.2871 122.242C17.877 121.85 17.5513 121.378 17.3297 120.856C17.1081 120.333 16.9952 119.771 16.9981 119.203C17.001 118.636 17.1194 118.075 17.3463 117.555C17.5731 117.035 17.9036 116.566 18.3175 116.178C20.0553 114.476 22.6467 114.573 24.4704 116.455C24.628 116.648 24.8269 116.803 25.0523 116.908C25.2778 117.014 25.5241 117.067 25.773 117.065C31.7263 117.065 37.6786 117.071 43.63 117.084C44.3922 117.084 44.686 116.865 44.6804 116.064C44.6472 112.417 44.6361 108.772 44.6804 105.125C44.6943 104.294 44.2509 104.016 43.6467 103.714C38.5705 101.14 34.0319 97.6208 30.274 93.346C29.1654 92.0794 29.0545 90.8516 30.019 89.9398C30.9835 89.0279 32.2833 89.1859 33.392 90.4442C37.175 94.7648 41.831 98.2343 47.0529 100.624C48.4636 101.275 49.0318 102.223 49.0096 103.756C48.9486 108.002 48.9874 112.248 48.9708 116.505C48.9542 119.739 47.3079 121.372 44.1178 121.366L35.2489 121.366L35.2572 121.364Z" fill="white"/>
<path d="M116.037 65.9932C113.035 65.9932 110.034 65.9932 107.032 65.9932C105.092 65.9932 104.311 65.2615 104.294 63.3353C104.241 56.6071 102.487 50.0016 99.1943 44.134C97.9859 41.9362 98.9171 40.434 101.461 40.4313C105.71 40.4313 109.959 40.4313 114.21 40.4479C114.591 40.4793 114.973 40.4203 115.326 40.2758C115.679 40.1313 115.993 39.9054 116.242 39.6164C117.847 37.8593 120.677 37.9119 122.323 39.6164C122.723 40.0158 123.04 40.4913 123.254 41.0149C123.468 41.5385 123.575 42.0996 123.568 42.6652C123.562 43.2308 123.442 43.7894 123.217 44.3081C122.991 44.8267 122.664 45.2949 122.254 45.6852C121.845 46.0754 121.362 46.3797 120.833 46.5801C120.304 46.7806 119.74 46.8731 119.175 46.8523C118.61 46.8314 118.054 46.6977 117.541 46.4588C117.029 46.22 116.569 45.8809 116.189 45.4616C115.959 45.1841 115.665 44.9663 115.333 44.8268C115 44.6873 114.639 44.6303 114.28 44.6606C111.37 44.6939 108.46 44.705 105.549 44.6606C104.613 44.6606 104.283 44.7853 104.743 45.8025C106.855 50.4337 108.102 55.4119 108.424 60.4917C108.49 61.5476 108.92 61.7555 109.887 61.7472C115.014 61.7056 120.142 61.7472 125.266 61.7278C126.272 61.7278 127.068 62.0049 127.539 62.9667C127.927 63.7732 127.769 64.491 127.281 65.1839C126.793 65.8768 126.001 66.0154 125.186 66.0015C122.137 66.0015 119.088 66.0015 116.04 66.0015L116.037 65.9932Z" fill="white"/>
<path d="M92.4273 6.34411C95.476 6.34411 98.5247 6.34411 101.573 6.34411C101.911 6.37205 102.251 6.32154 102.566 6.19654C102.88 6.07154 103.162 5.87542 103.389 5.62351C105.176 3.71946 107.779 3.71669 109.531 5.5071C109.921 5.90153 110.23 6.3692 110.44 6.88328C110.649 7.39736 110.755 7.94775 110.752 8.50288C110.748 9.05801 110.635 9.60698 110.419 10.1183C110.202 10.6296 109.887 11.0932 109.492 11.4825C107.757 13.212 105.124 13.1455 103.333 11.2802C103.14 11.0591 102.898 10.8848 102.628 10.7705C102.357 10.6562 102.064 10.605 101.77 10.6206C95.95 10.6206 90.1297 10.6428 84.3095 10.6206C83.345 10.6206 83.0484 10.8978 83.0623 11.8789C83.1159 15.3895 83.1159 18.9001 83.0623 22.4107C83.0623 23.3059 83.4254 23.6856 84.1709 24.057C88.3473 26.1522 92.1635 28.899 95.476 32.1943C96.6622 33.3666 96.7814 34.6554 95.8308 35.5922C95.6396 35.7977 95.4076 35.961 95.1497 36.0718C94.8918 36.1825 94.6136 36.2383 94.333 36.2354C94.0523 36.2325 93.7753 36.1711 93.5197 36.0551C93.2641 35.9391 93.0356 35.7711 92.8486 35.5617C89.1476 31.8684 84.8098 28.8741 80.0441 26.7233C79.1378 26.3075 78.7858 25.5259 78.7858 24.5836C78.7858 19.872 78.7442 15.1604 78.8135 10.4488C78.8496 8.04029 80.6815 6.36905 83.1565 6.34134C86.2496 6.30808 89.3426 6.34134 92.4357 6.34134L92.4273 6.34411Z" fill="white"/>
<path d="M92.3048 121.363C89.3485 121.363 86.3922 121.363 83.4359 121.363C80.5729 121.363 78.8102 119.684 78.7852 116.851C78.7436 112.417 78.7852 107.982 78.752 103.548C78.752 102.204 79.2314 101.303 80.5091 100.721C84.9764 98.6915 89.0423 95.8751 92.5127 92.4064C93.6518 91.2728 94.8851 91.1924 95.8053 92.1043C96.7254 93.0161 96.6367 94.3382 95.445 95.5022C92.1331 98.7939 88.3202 101.54 84.1481 103.637C83.3971 104.011 83.0395 104.399 83.0617 105.3C83.1153 108.81 83.1153 112.321 83.0617 115.831C83.0617 116.81 83.361 117.087 84.3144 117.081C90.1347 117.045 95.9549 117.059 101.759 117.068C102.052 117.082 102.345 117.029 102.616 116.913C102.886 116.798 103.126 116.622 103.319 116.4C105.098 114.526 107.753 114.46 109.474 116.2C109.88 116.596 110.201 117.071 110.419 117.594C110.637 118.118 110.747 118.68 110.742 119.248C110.737 119.815 110.617 120.375 110.391 120.895C110.164 121.415 109.834 121.883 109.422 122.273C107.684 123.966 105.12 123.935 103.383 122.07C103.158 121.817 102.877 121.619 102.562 121.492C102.248 121.366 101.908 121.314 101.57 121.341C98.4798 121.358 95.3867 121.341 92.2965 121.341L92.3048 121.363Z" fill="white"/>
<path d="M34.713 10.6482C31.8528 10.6482 28.9925 10.6482 26.1212 10.6482C25.7829 10.6276 25.4443 10.6848 25.1315 10.8155C24.8187 10.9462 24.5401 11.1469 24.317 11.4021C23.934 11.8106 23.4738 12.139 22.963 12.3682C22.4522 12.5974 21.901 12.723 21.3413 12.7375C20.7816 12.7521 20.2245 12.6554 19.7025 12.453C19.1805 12.2506 18.7038 11.9466 18.3002 11.5585C17.8966 11.1705 17.574 10.7062 17.3512 10.1925C17.1284 9.67888 17.0098 9.1261 17.0023 8.56626C16.9948 8.00641 17.0986 7.45065 17.3075 6.93121C17.5165 6.41177 17.8265 5.93898 18.2196 5.54028C19.913 3.79144 22.5404 3.736 24.2588 5.54028C24.5142 5.82507 24.8311 6.04795 25.1855 6.19202C25.5399 6.33608 25.9225 6.39754 26.3042 6.37174C32.2547 6.35511 38.2079 6.37174 44.1612 6.37174C47.2764 6.37174 48.9421 8.01803 48.9587 11.1499C48.9726 14.1487 49.0169 17.1503 48.9587 20.1463C48.9366 21.291 49.0751 21.7372 50.3639 21.2688C51.8068 20.7828 53.2797 20.3912 54.7734 20.0964C56.0068 19.8193 57.0849 20.4761 57.3704 21.5681C57.6891 22.7793 57.0932 23.8519 55.7601 24.1844C53.0327 24.8685 50.3487 25.7153 47.7226 26.7204C46.0237 27.3634 44.7294 26.4128 44.6739 24.4838C44.613 21.6235 44.6518 18.7633 44.649 15.892C44.649 14.5062 44.6019 13.1204 44.649 11.7347C44.685 10.881 44.3718 10.6261 43.5404 10.6261C40.5887 10.6649 37.637 10.6427 34.6714 10.6427L34.713 10.6482Z" fill="white"/>
<path d="M19.9612 44.6516C17.744 44.6516 15.5268 44.6682 13.3095 44.6516C12.995 44.6303 12.6799 44.6846 12.3906 44.81C12.1013 44.9354 11.8462 45.1281 11.6466 45.3722C11.0774 46.0155 10.3262 46.4707 9.4926 46.6776C8.65895 46.8846 7.7821 46.8335 6.97813 46.5311C6.17416 46.2287 5.48098 45.6893 4.99034 44.9843C4.4997 44.2793 4.23473 43.4418 4.23052 42.5829C4.22631 41.724 4.48305 40.884 4.96675 40.1742C5.45045 39.4644 6.13831 38.9182 6.93928 38.6079C7.74024 38.2977 8.61654 38.238 9.45218 38.4367C10.2878 38.6355 11.0434 39.0833 11.6189 39.721C11.7966 39.9534 12.0263 40.141 12.2896 40.2685C12.5529 40.3961 12.8424 40.4601 13.1349 40.4555C17.0567 40.4277 20.9812 40.4222 24.9029 40.4555C25.6817 40.4555 26.0309 40.1062 26.4106 39.5215C29.1362 35.2803 32.568 31.5372 36.5572 28.4547C37.3693 27.8283 38.2008 27.4098 39.229 27.9004C40.7561 28.6127 40.8919 30.4557 39.4091 31.6281C36.9654 33.5256 34.7293 35.6763 32.738 38.0442C31.4252 39.5922 30.252 41.2533 29.232 43.0081C28.5752 44.1721 27.7022 44.732 26.3219 44.671C24.2017 44.5906 22.0759 44.6488 19.9474 44.6488L19.9612 44.6516Z" fill="white"/>
<path d="M19.81 87.2728C17.6399 87.2728 15.467 87.2867 13.2969 87.2728C12.9836 87.2511 12.6696 87.3037 12.3806 87.4266C12.0916 87.5494 11.8357 87.7389 11.634 87.9796C11.0623 88.6202 10.3094 89.0721 9.47517 89.2754C8.64091 89.4786 7.76459 89.4237 6.96228 89.1178C6.15996 88.8118 5.46951 88.2694 4.98237 87.5623C4.49522 86.8552 4.23438 86.0168 4.23438 85.1581C4.23438 84.2995 4.49522 83.4611 4.98237 82.754C5.46951 82.0469 6.15996 81.5044 6.96228 81.1985C7.76459 80.8926 8.64091 80.8376 9.47517 81.0409C10.3094 81.2441 11.0623 81.696 11.634 82.3367C12.0746 82.819 12.4848 83.0823 13.1528 83.0739C16.2015 83.0435 19.2502 83.0268 22.2988 83.0739C23.3271 83.0739 23.3465 82.733 22.9779 81.9404C21.6887 79.1258 20.7379 76.1682 20.1454 73.1296C19.8543 71.6746 20.4558 70.6048 21.6836 70.3581C22.9612 70.0976 23.923 70.7461 24.2639 72.2261C25.1847 76.2758 26.671 80.1758 28.6789 83.8112C29.7293 85.7041 28.7704 87.2423 26.6058 87.2728C24.3442 87.3005 22.0799 87.2728 19.8183 87.2728L19.81 87.2728Z" fill="white"/>
<path d="M107.947 87.2724C105.73 87.2724 103.513 87.289 101.295 87.2724C98.9507 87.2502 98.0195 85.7314 99.153 83.6694C101.113 80.1024 102.56 76.277 103.452 72.3061C103.812 70.7318 104.765 70.0445 106.082 70.3217C107.343 70.5849 107.897 71.6603 107.579 73.2429C106.991 76.2361 106.047 79.1484 104.768 81.9178C104.383 82.7492 104.438 83.0513 105.45 83.0264C108.499 82.9876 111.547 83.0098 114.596 83.0264C114.867 83.0398 115.137 82.9893 115.384 82.8791C115.632 82.7688 115.85 82.6019 116.021 82.3917C117.806 80.4516 120.533 80.3436 122.282 82.1146C122.684 82.5147 123.001 82.9915 123.215 83.5167C123.429 84.0419 123.536 84.6048 123.528 85.172C123.521 85.7391 123.4 86.299 123.172 86.8183C122.944 87.3377 122.614 87.8059 122.201 88.1953C120.466 89.8582 117.786 89.7446 116.034 87.835C115.855 87.6361 115.632 87.4816 115.383 87.3839C115.134 87.2863 114.865 87.2481 114.599 87.2724C112.382 87.289 110.164 87.2724 107.947 87.2724Z" fill="white"/>
<path d="M61.7457 117.38C61.7457 114.842 61.6958 112.3 61.7706 109.761C61.8039 108.714 61.438 108.376 60.4403 108.376C58.7247 108.392 57.0424 108.054 55.36 107.76C53.8495 107.497 53.0209 106.474 53.2426 105.211C53.4643 103.947 54.4399 103.309 55.967 103.57C61.1187 104.473 66.3872 104.485 71.5431 103.606C73.206 103.329 74.1843 103.936 74.4033 105.233C74.6278 106.574 73.8185 107.489 72.1528 107.796C70.5619 108.087 68.9683 108.392 67.347 108.37C66.2383 108.353 65.9806 108.827 65.9917 109.872C66.0388 114.953 65.9917 120.033 66.0166 125.116C66.0166 126.163 65.7977 127.034 64.7556 127.516C63.2756 128.2 61.79 127.2 61.7623 125.421C61.7235 122.743 61.7623 120.066 61.7623 117.383L61.7457 117.38Z" fill="white"/>
<path d="M11.7019 65.9844C8.70308 65.9844 5.70428 65.9844 2.70547 65.9844C1.02592 65.9844 0.0281615 65.2028 0.000446083 63.8891C-0.0244978 62.5283 0.998201 61.7273 2.77199 61.7273C7.84945 61.7273 12.9241 61.6913 17.9988 61.7273C18.9633 61.7273 19.2904 61.4335 19.3292 60.4995C19.4622 57.2541 20.1606 54.1056 21.0448 50.9931C21.1344 50.6348 21.2426 50.2814 21.369 49.9344C21.8374 48.7593 22.9045 48.1883 24.0103 48.4932C24.2839 48.5571 24.5409 48.678 24.7647 48.8478C24.9885 49.0176 25.174 49.2327 25.3091 49.479C25.4443 49.7253 25.5261 49.9972 25.5492 50.2772C25.5723 50.5572 25.5362 50.8389 25.4432 51.104C24.1519 55.2518 23.4685 59.5648 23.4144 63.9085C23.3812 65.3109 22.4915 65.9706 20.981 65.9816C17.8852 66.001 14.7949 65.9872 11.7019 65.9844Z" fill="white"/>
<path d="M66.0236 10.2246C66.0236 12.719 66.1123 15.2134 65.9876 17.7077C65.9211 19.0409 66.4172 19.3845 67.6145 19.3707C69.2359 19.343 70.824 19.6811 72.4121 19.9721C73.8671 20.2492 74.6542 21.211 74.4685 22.436C74.2828 23.661 73.31 24.3761 71.7912 24.1516C69.2403 23.7522 66.6671 23.5116 64.0863 23.431C62.4733 23.3949 61.7555 22.5773 61.7499 20.9615C61.737 14.781 61.737 8.60046 61.7499 2.41992C61.7499 0.959319 62.5953 0.0225394 63.8424 0.000367078C65.0896 -0.0218053 65.9987 0.962092 66.0098 2.49475C66.0237 5.07783 66.0098 7.66091 66.0098 10.2551L66.0236 10.2246Z" fill="white"/>
<path d="M63.8762 80.8981C60.5088 80.8981 57.1414 80.8981 53.774 80.8981C51.8339 80.8981 51.1244 80.1747 51.1216 78.2014C51.1105 72.1557 51.1105 66.1128 51.1216 60.0727C51.1216 58.2213 51.8644 57.4453 53.7296 57.4398C60.5088 57.4176 67.2898 57.4176 74.0727 57.4398C75.9214 57.4398 76.6614 58.2297 76.6641 60.0894C76.6641 66.1313 76.6641 72.1742 76.6641 78.218C76.6641 80.172 75.9407 80.8898 73.9896 80.8981C70.6 80.912 67.2326 80.8981 63.8762 80.8981ZM70.2508 68.3347C70.2508 65.0837 67.9643 62.3038 65.0652 61.8216C61.8641 61.2922 58.9983 62.9302 57.898 65.9151C57.367 67.3323 57.365 68.8934 57.8924 70.3118C58.4199 71.7303 59.4414 72.9108 60.7693 73.6367C61.058 73.7617 61.3107 73.9571 61.5044 74.205C61.698 74.4529 61.8265 74.7454 61.8779 75.0557C62.0803 76.0867 62.8729 76.5773 63.915 76.5606C64.8934 76.544 65.6999 76.0701 65.8551 75.1111C65.9992 74.2325 66.5175 73.9194 67.1688 73.5258C69.181 72.3063 70.1233 70.4439 70.2508 68.3347Z" fill="white"/>
<path d="M63.8421 53.2087C62.0904 53.2087 60.3416 53.1783 58.59 53.2087C57.7918 53.2309 57.3927 53.0341 57.4509 52.1417C57.5368 50.7559 57.4176 49.3702 57.5978 48.0066C58.0246 44.7833 60.6659 42.5716 63.9058 42.5854C67.1457 42.5993 69.7621 44.8304 70.1584 48.0675C70.3247 49.4311 70.236 50.8252 70.3053 52.2027C70.3441 53.0064 69.9838 53.2254 69.2327 53.2087C67.4368 53.1838 65.638 53.2087 63.8421 53.2087Z" fill="white"/>
<path d="M65.995 68.1862C65.9846 68.4634 65.9197 68.7358 65.8041 68.9879C65.6885 69.24 65.5243 69.4668 65.321 69.6555C65.1176 69.8441 64.8792 69.9909 64.6191 70.0874C64.3591 70.1838 64.0826 70.2281 63.8054 70.2178C63.5276 70.2114 63.2538 70.1496 63.0002 70.0362C62.7465 69.9227 62.518 69.7598 62.328 69.5569C62.1381 69.3541 61.9905 69.1154 61.8939 68.8548C61.7973 68.5942 61.7537 68.317 61.7656 68.0393C61.7908 67.4801 62.0342 66.953 62.4435 66.5712C62.8528 66.1893 63.3955 65.9831 63.9551 65.9967C64.2329 66.0064 64.506 66.0707 64.7589 66.186C65.0118 66.3012 65.2394 66.4653 65.4289 66.6686C65.6183 66.872 65.7659 67.1107 65.863 67.3711C65.9601 67.6315 66.005 67.9085 65.995 68.1862Z" fill="white"/>
</svg>
