<svg width="1226" height="469" viewBox="0 0 1226 469" fill="none" xmlns="http://www.w3.org/2000/svg">
<path d="M405.129 12.0549C557.944 -3.95364 726.406 -1.67838 873.434 18.377C946.946 28.4045 1012.06 42.4625 1065.67 59.546C1119.29 76.637 1161.3 96.7257 1188.68 118.763C1216.06 140.802 1227.44 163.658 1223.86 186.03C1220.26 208.51 1201.48 231.12 1167.04 252.406C1098.21 294.952 973.742 327.931 820.871 343.945C668.056 359.954 499.594 357.678 352.566 337.623C279.055 327.596 213.939 313.538 160.334 296.454C106.706 279.363 64.697 259.274 37.3179 237.237C9.93506 215.198 -1.43964 192.342 2.14269 169.97C5.74228 147.49 24.521 124.88 58.9574 103.594C127.787 61.0476 252.258 28.0695 405.129 12.055L405.129 12.0549Z" stroke="url(#paint0_linear_227_36)" stroke-width="3"/>
<path d="M500.2 158.686C583.124 150.062 674.544 151.288 754.317 162.092C794.202 167.493 829.506 175.062 858.546 184.251C887.617 193.449 910.281 204.23 924.99 215.984C939.707 227.744 945.514 239.685 943.666 251.14C941.795 262.743 931.965 274.692 913.355 286.113C876.197 308.916 808.798 326.681 725.8 335.314C642.876 343.938 551.456 342.712 471.683 331.908C431.798 326.507 396.494 318.938 367.454 309.749C338.383 300.551 315.719 289.77 301.01 278.016C286.293 266.256 280.486 254.315 282.334 242.86C284.205 231.257 294.035 219.308 312.645 207.887C349.803 185.084 417.201 167.319 500.2 158.686L500.2 158.686Z" stroke="white" stroke-opacity="0.25" stroke-width="4"/>
<path d="M405.13 68.0846C557.944 52.0311 726.406 54.3127 873.433 74.4244C946.945 84.48 1012.06 98.5774 1065.66 115.709C1119.29 132.848 1161.3 152.993 1188.68 175.092C1216.06 197.193 1227.44 220.115 1223.86 242.554C1220.26 265.1 1201.48 287.774 1167.04 309.12C1098.21 351.785 973.741 384.856 820.871 400.915C668.056 416.969 499.594 414.687 352.567 394.576C279.055 384.52 213.94 370.423 160.335 353.291C106.708 336.152 64.6986 316.007 37.3195 293.908C9.93719 271.807 -1.44025 248.885 2.14279 226.446C5.74289 203.9 24.5234 181.226 58.959 159.88C127.788 117.215 252.259 84.144 405.129 68.0846L405.13 68.0846Z" stroke="url(#paint1_linear_227_36)" stroke-width="3"/>
<path d="M405.129 125.055C557.944 109.046 726.406 111.322 873.434 131.377C946.946 141.404 1012.06 155.462 1065.67 172.546C1119.29 189.637 1161.3 209.726 1188.68 231.763C1216.06 253.802 1227.44 276.658 1223.86 299.03C1220.26 321.51 1201.48 344.12 1167.04 365.406C1098.21 407.952 973.742 440.931 820.871 456.945C668.056 472.954 499.594 470.678 352.566 450.623C279.055 440.596 213.939 426.538 160.334 409.454C106.706 392.363 64.697 372.274 37.3179 350.237C9.93506 328.198 -1.43964 305.342 2.14269 282.97C5.74228 260.49 24.521 237.88 58.9574 216.594C127.787 174.048 252.258 141.069 405.129 125.055L405.129 125.055Z" stroke="url(#paint2_linear_227_36)" stroke-opacity="0.8" stroke-width="3"/>
<defs>
<linearGradient id="paint0_linear_227_36" x1="613" y1="3.26165e-05" x2="613" y2="356" gradientUnits="userSpaceOnUse">
<stop stop-color="white" stop-opacity="0"/>
<stop offset="1" stop-color="white" stop-opacity="0.25"/>
</linearGradient>
<linearGradient id="paint1_linear_227_36" x1="613" y1="56" x2="613" y2="413" gradientUnits="userSpaceOnUse">
<stop stop-color="white" stop-opacity="0"/>
<stop offset="1" stop-color="white" stop-opacity="0.5"/>
</linearGradient>
<linearGradient id="paint2_linear_227_36" x1="613" y1="113" x2="613" y2="469" gradientUnits="userSpaceOnUse">
<stop stop-color="white" stop-opacity="0"/>
<stop offset="1" stop-color="white" stop-opacity="0.75"/>
</linearGradient>
</defs>
</svg>
