<svg width="338" height="162" viewBox="0 0 338 162" fill="none" xmlns="http://www.w3.org/2000/svg">
<path d="M63.8414 68.8607C40.4026 66.2341 34.1117 44.5573 15.0624 28.9848L7.00169 139.439L312.386 161.725L322.465 23.6087C311.452 20.4884 303.961 21.1189 293.317 26.062C277.994 33.1783 279.646 53.7943 264.831 62.2622C252.363 69.3885 242.792 62.6798 229.748 68.2084C211.874 75.7848 209.021 97.4089 190.387 101.652C155.519 109.591 160.497 31.8824 125.124 30.8006C98.1856 29.9767 90.6239 71.8619 63.8414 68.8607Z" fill="url(#paint0_linear_268_36)" fill-opacity="0.1"/>
<g filter="url(#filter0_d_268_36)">
<path d="M15.076 28.7728C34.1254 44.3453 40.4162 66.022 63.855 68.6486C90.6376 71.6499 98.1992 29.7646 125.138 30.5885C160.511 31.6704 155.533 109.379 190.401 101.44C209.035 97.1968 211.888 75.5727 229.762 67.9963C242.805 62.4677 252.377 69.1765 264.845 62.0501C279.659 53.5822 278.007 32.9662 293.331 25.8499C303.975 20.9069 311.466 20.2764 322.479 23.3966" stroke="url(#paint1_linear_268_36)" stroke-width="3.73204" stroke-linecap="round"/>
</g>
<ellipse cx="149.142" cy="51.3285" rx="22.8086" ry="21.9394" transform="rotate(3.60042 149.142 51.3285)" fill="#5570E3" fill-opacity="0.1"/>
<ellipse cx="149.143" cy="51.3286" rx="17.4419" ry="16.7772" transform="rotate(3.60042 149.143 51.3286)" fill="#5570E3" fill-opacity="0.1"/>
<ellipse cx="149.222" cy="50.0405" rx="12.0752" ry="11.615" transform="rotate(3.60042 149.222 50.0405)" fill="#5570E3" fill-opacity="0.1"/>
<ellipse cx="149.183" cy="50.6846" rx="6.70842" ry="6.45278" transform="rotate(3.60042 149.183 50.6846)" fill="white"/>
<ellipse cx="149.182" cy="50.6845" rx="2.68337" ry="2.58111" transform="rotate(3.60042 149.182 50.6845)" fill="#4FDCCE"/>
<defs>
<filter id="filter0_d_268_36" x="0.542318" y="19.6225" width="336.47" height="112.753" filterUnits="userSpaceOnUse" color-interpolation-filters="sRGB">
<feFlood flood-opacity="0" result="BackgroundImageFix"/>
<feColorMatrix in="SourceAlpha" type="matrix" values="0 0 0 0 0 0 0 0 0 0 0 0 0 0 0 0 0 0 127 0" result="hardAlpha"/>
<feOffset dy="15.8333"/>
<feGaussianBlur stdDeviation="6.33333"/>
<feComposite in2="hardAlpha" operator="out"/>
<feColorMatrix type="matrix" values="0 0 0 0 0.4 0 0 0 0 0.301961 0 0 0 0 1 0 0 0 0.14 0"/>
<feBlend mode="normal" in2="BackgroundImageFix" result="effect1_dropShadow_268_36"/>
<feBlend mode="normal" in="SourceGraphic" in2="effect1_dropShadow_268_36" result="shape"/>
</filter>
<linearGradient id="paint0_linear_268_36" x1="169.854" y1="11.3552" x2="159.694" y2="150.582" gradientUnits="userSpaceOnUse">
<stop offset="0.560155" stop-color="#4FDCCE"/>
<stop offset="0.950301" stop-color="#4FDCCE"/>
</linearGradient>
<linearGradient id="paint1_linear_268_36" x1="14.9897" y1="29.9555" x2="15.1509" y2="27.7464" gradientUnits="userSpaceOnUse">
<stop stop-color="#4FDCCE"/>
<stop offset="1" stop-color="#4DCAA7"/>
</linearGradient>
</defs>
</svg>
