<svg width="142" height="142" viewBox="0 0 142 142" fill="none" xmlns="http://www.w3.org/2000/svg">
<mask id="mask0_158_700" style="mask-type:alpha" maskUnits="userSpaceOnUse" x="0" y="0" width="142" height="143">
<path d="M78.1279 14.2559C42.8524 14.256 14.256 42.8524 14.2559 78.1279H0C2.84858e-05 67.8681 2.02099 57.7084 5.94727 48.2295C9.87357 38.7507 15.628 30.1376 22.8828 22.8828C30.1376 15.628 38.7507 9.87357 48.2295 5.94727C57.7084 2.02099 67.8681 2.70491e-05 78.1279 0V14.2559Z" fill="white"/>
<path d="M78.1289 14.2559C86.5166 14.2559 94.822 15.9084 102.571 19.1182C110.321 22.328 117.362 27.0328 123.293 32.9639C129.224 38.8949 133.929 45.9362 137.139 53.6855C140.349 61.4348 142.001 69.7402 142.001 78.1279H127.745C127.745 50.7257 105.531 28.5117 78.1289 28.5117V14.2559Z" fill="white"/>
<path d="M78.1279 43.0471C58.7534 43.0471 43.0469 58.7537 43.0469 78.1282H28.5117C28.5117 71.6125 29.7947 65.1605 32.2881 59.1409C34.7815 53.1211 38.4366 47.6515 43.0439 43.0442C47.6512 38.4369 53.1209 34.7818 59.1406 32.2883C65.1603 29.7949 71.6123 28.512 78.1279 28.512V43.0471Z" fill="white"/>
<path d="M127.745 78.1282C127.745 84.6438 126.462 91.0958 123.969 97.1155C121.475 103.135 117.82 108.605 113.213 113.212C108.606 117.819 103.136 121.475 97.1162 123.968C91.0965 126.461 84.6445 127.744 78.1289 127.744V113.489C97.3526 113.488 112.993 98.1482 113.478 79.0413L113.489 78.1282H127.745Z" fill="white"/>
<path d="M28.5117 78.1282C28.5118 105.317 50.3804 127.397 77.4873 127.74L78.1279 127.744V142C69.7402 142 61.4348 140.348 53.6855 137.138C45.9362 133.928 38.895 129.223 32.9639 123.292C27.0328 117.361 22.328 110.32 19.1182 102.571C15.9084 94.8213 14.2559 86.5159 14.2559 78.1282H28.5117Z" fill="white"/>
</mask>
<g mask="url(#mask0_158_700)">
<rect x="-32.9844" y="169.327" width="211.044" height="197.067" transform="rotate(-88.5538 -32.9844 169.327)" fill="url(#paint0_linear_158_700)"/>
</g>
<path d="M77.6784 68.4928C77.8825 67.6251 79.1175 67.6251 79.3216 68.4928L79.5245 69.3555C80.481 73.4217 83.7633 76.53 87.8754 77.2639C88.6972 77.4106 88.6972 78.5894 87.8754 78.7361C83.7633 79.47 80.481 82.5783 79.5245 86.6445L79.3216 87.5072C79.1175 88.3749 77.8825 88.3749 77.6784 87.5072L77.4755 86.6445C76.519 82.5783 73.2367 79.47 69.1246 78.7361C68.3028 78.5894 68.3028 77.4106 69.1246 77.2639C73.2367 76.53 76.519 73.4217 77.4755 69.3555L77.6784 68.4928Z" fill="white"/>
<defs>
<linearGradient id="paint0_linear_158_700" x1="72.5375" y1="169.327" x2="72.5375" y2="366.394" gradientUnits="userSpaceOnUse">
<stop stop-color="#EDF4F1"/>
<stop offset="1" stop-color="#24664F"/>
</linearGradient>
</defs>
</svg>
