<svg width="166" height="147" viewBox="0 0 166 147" fill="none" xmlns="http://www.w3.org/2000/svg">
<g style="mix-blend-mode:soft-light">
<path d="M97.5755 73.3561C97.5755 81.5068 90.953 88.1143 82.7838 88.1143C74.6147 88.1143 67.9922 81.5068 67.9922 73.3561C67.9922 65.2055 74.6147 58.598 82.7838 58.598C90.953 58.598 97.5755 65.2055 97.5755 73.3561Z" fill="white"/>
<path d="M82.778 107.159C81.5443 107.19 80.0897 107.208 78.6289 107.208C61.3761 107.208 44.737 104.605 29.08 99.7738L30.2646 100.086C21.9726 97.4162 14.7855 93.4786 8.53128 88.4327L8.66017 88.5307C3.81759 85.034 0.558523 79.6206 0.00613761 73.4234L0 73.3438C0 63.5826 10.7224 54.0296 28.7302 47.7956C44.1478 42.7313 61.8917 39.8103 80.3168 39.8103C81.1699 39.8103 82.023 39.8164 82.8762 39.8287H82.7473C83.4592 39.8164 84.294 39.8103 85.1348 39.8103C103.333 39.8103 120.856 42.6823 137.28 47.9977L136.083 47.6609C144.093 50.2574 151.047 54.0051 157.154 58.7694L157.006 58.6591C161.763 62.0027 164.973 67.2568 165.513 73.2765L165.519 73.3561C165.519 83.497 153.526 93.7603 134.199 100.141C119.696 104.605 103.02 107.177 85.7424 107.177C84.699 107.177 83.6618 107.165 82.6245 107.147H82.778V107.159ZM82.778 46.9016C82.1274 46.8893 81.354 46.8893 80.5807 46.8893C62.8982 46.8893 45.8664 49.6573 29.8902 54.7828L31.0624 54.4583C14.5032 60.2207 7.07667 68.1019 7.07667 73.3622C7.07667 78.8307 15.0617 87.4468 32.5662 93.4113C46.3696 97.6795 62.2354 100.141 78.678 100.141C80.1204 100.141 81.5566 100.123 82.9866 100.086L82.778 100.092C83.674 100.111 84.7297 100.123 85.7854 100.123C102.259 100.123 118.155 97.6734 133.137 93.1234L131.989 93.4235C150.157 87.3978 158.504 78.7817 158.504 73.3377C157.878 69.4308 155.668 66.1362 152.575 64.0603L152.526 64.0296C147.211 59.9022 141.012 56.5771 134.297 54.3909L133.867 54.2684C119.334 49.5776 102.609 46.871 85.2576 46.871C84.386 46.871 83.5206 46.8771 82.6552 46.8893H82.7841L82.778 46.9016Z" fill="white"/>
<path d="M49.2172 146.914C49.119 146.914 49.0024 146.92 48.8919 146.92C46.1116 146.92 43.5031 146.192 41.2506 144.918L41.3304 144.961C32.8727 140.062 29.9267 126.026 33.4742 107.355C37.7521 88.2 44.6876 71.2618 53.9984 55.9157L53.5749 56.6751C62.7752 40.4166 73.8904 26.5096 86.8714 14.5928L86.9942 14.4826C92.6592 9.31419 99.2878 5.07044 106.555 2.0637L107.003 1.89835C109.501 0.698105 112.435 0 115.534 0C118.609 0 121.524 0.691981 124.127 1.92285L124.004 1.87386C132.811 6.93206 135.733 22.4496 131.602 42.3272C127.183 60.4963 120.444 76.4976 111.581 91.0659L112.011 90.3127C103.099 106.418 92.3155 120.209 79.6904 132.07L79.6045 132.15C73.7247 137.52 66.8199 141.887 59.2215 144.9L58.7673 145.059C55.944 146.167 52.6788 146.847 49.2601 146.927H49.2233L49.2172 146.914ZM56.613 58.4448L59.6757 60.2085C51.1996 74.1706 44.5465 90.3739 40.6123 107.606L40.4036 108.708C37.1322 125.91 40.287 136.253 44.8227 138.874C45.9949 139.498 47.382 139.86 48.8551 139.86C48.9778 139.86 49.1067 139.86 49.2295 139.854H49.211C55.0725 139.854 64.2973 136.149 74.9645 126.859C87.0924 115.426 97.3913 102.223 105.481 87.6428L105.898 86.816C113.987 73.6133 120.45 58.3224 124.464 42.07L124.698 40.9555C128.558 22.2291 125.225 10.7655 120.487 8.02208C119.026 7.44645 117.332 7.11577 115.565 7.11577C113.331 7.11577 111.219 7.64853 109.353 8.58546L109.433 8.54872C102.571 11.3963 96.6793 15.1991 91.5912 19.8531L91.6342 19.8164C79.1073 31.3351 68.4831 44.6603 60.1114 59.4246L59.6879 60.233L56.613 58.4448Z" fill="white"/>
<path d="M116.344 147C108.328 147 98.1768 142.181 87.5588 133.062C74.2095 120.919 62.904 106.841 54.0229 91.2129L53.581 90.3739C44.8042 75.9893 37.9239 59.296 33.8485 41.5372L33.6276 40.4043C32.6333 36.0626 32.0625 31.084 32.0625 25.9707C32.0625 22.7435 32.2896 19.5775 32.7254 16.4728L32.6824 16.828C33.2041 10.7165 36.4141 5.45009 41.1032 2.13716L41.1646 2.09429C49.9414 -2.9884 64.8864 2.24126 80.0893 15.738C92.4996 27.4588 103.093 40.9248 111.502 55.7871L111.944 56.6322C120.708 70.6984 127.637 87.012 131.842 104.385L132.075 105.524C133.075 109.866 133.652 114.857 133.652 119.976C133.652 123.509 133.382 126.975 132.854 130.362L132.903 129.982C132.271 136.241 128.951 141.623 124.133 145.022L124.065 145.065C121.929 146.284 119.376 147 116.657 147C116.547 147 116.436 147 116.326 146.994L116.344 147ZM59.7063 86.8466C68.6549 102.591 79.451 116.063 92.0576 127.606L92.1804 127.716C105.474 139.125 116.019 141.593 120.585 138.947C125.33 136.216 128.804 125.01 125.213 106.902C120.904 89.2043 114.245 73.6255 105.456 59.4981L105.855 60.1839C97.3912 45.1441 87.2765 32.2475 75.4861 21.0901L75.4124 21.0227C61.0873 8.32212 49.481 5.46846 44.7367 8.19965C41.8336 10.5573 39.9248 14.0294 39.6731 17.9547V17.9976C39.3356 20.3859 39.1453 23.1415 39.1453 25.9462C39.1453 30.5819 39.6731 35.0889 40.6674 39.4245L40.5876 39.0204C44.7183 57.0976 51.31 73.0621 60.1175 87.5448L59.7124 86.8283L59.7063 86.8466Z" fill="white"/>
</g>
</svg>
